<?xml version="1.0" encoding="utf-8"?>
<svg id="master-artboard" viewBox="0 0 792 612" version="1.1" xmlns="http://www.w3.org/2000/svg" x="0px" y="0px" style="enable-background:new 0 0 792 612;" width="792px" height="612px">

<linearGradient id="SVGID_1_" gradientUnits="userSpaceOnUse" x1="0" y1="612" x2="0.7071" y2="611.2929">
	<stop offset="0" style="stop-color:#00A836"/>
	<stop offset="0.9831" style="stop-color:#182F18"/>
</linearGradient>
<g>
	<linearGradient id="SVGID_2_" gradientUnits="userSpaceOnUse" x1="597.2774" y1="379.6742" x2="695.6292" y2="379.6742">
		<stop offset="0" style="stop-color:#CCCCCC"/>
		<stop offset="0.1157" style="stop-color:#B9B9B9"/>
		<stop offset="0.373" style="stop-color:#959595"/>
		<stop offset="0.614" style="stop-color:#7B7B7B"/>
		<stop offset="0.83" style="stop-color:#6C6C6C"/>
		<stop offset="1" style="stop-color:#666666"/>
	</linearGradient>
	<path class="st0" d="M598,336.6v-33c0,0,4-10.1,11.6-11.6c0,0,31.8-21.9,47.6-17.7c0,0,3.6-0.9,16.3-0.5c12.7,0.4,21-1.6,21.8,10.7&#10;&#9;&#9;c0.8,12.3,0,179,0,179s0.8,5.2-6.4,11.1c-7.1,6-23.8,10.3-40.1,11.1c-16.3,0.8-40.5-2.8-41.7-5.6c-1.2-2.8-7.7-17.1-9.2-28.2&#10;&#9;&#9;c-1.5-11.1,0-33,0-33V336.6z" style="fill: url('#SVGID_2_');"/>
	<linearGradient id="SVGID_3_" gradientUnits="userSpaceOnUse" x1="625.9834" y1="379.8206" x2="695.8054" y2="379.8206">
		<stop offset="0" style="stop-color:#CCCCCC"/>
		<stop offset="0.4353" style="stop-color:#CACACA"/>
		<stop offset="0.599" style="stop-color:#C3C3C3"/>
		<stop offset="0.7168" style="stop-color:#B7B7B7"/>
		<stop offset="0.8128" style="stop-color:#A6A6A6"/>
		<stop offset="0.8953" style="stop-color:#909090"/>
		<stop offset="0.9673" style="stop-color:#757575"/>
		<stop offset="1" style="stop-color:#666666"/>
	</linearGradient>
	<path class="st1" d="M673.4,273.7v184.2c0,0,0.2,7.7-1.2,11.1c-1.4,3.4-31.4,15.5-46.3,15.7c0,0,32,5.4,53.7-5.1&#10;&#9;&#9;c0,0,14.4-5.1,15.6-16.2c1.2-11.1,0-179,0-179s1-9.5-9.7-10.8L673.4,273.7z" style="fill: url('#SVGID_3_');"/>
	<linearGradient id="SVGID_4_" gradientUnits="userSpaceOnUse" x1="601.5967" y1="379.4311" x2="673.4434" y2="379.4311">
		<stop offset="0" style="stop-color:#CCCCCC"/>
		<stop offset="0.4353" style="stop-color:#CACACA"/>
		<stop offset="0.599" style="stop-color:#C3C3C3"/>
		<stop offset="0.7168" style="stop-color:#B7B7B7"/>
		<stop offset="0.8128" style="stop-color:#A6A6A6"/>
		<stop offset="0.8953" style="stop-color:#909090"/>
		<stop offset="0.9673" style="stop-color:#757575"/>
		<stop offset="1" style="stop-color:#666666"/>
	</linearGradient>
	<path class="st2" d="M673.4,273.7c0,0-22.5-0.8-23.3,10.8c-0.8,11.6,0,162.2,0,162.2s2,11.1-15.5,14.8c-17.5,3.7-26.5,5.6-33-0.1&#10;&#9;&#9;c0,0,4.6,19.6,7.7,20c3.1,0.4,16.2,5.8,25.3,2.9c9.1-2.9,37.7-8.9,38.3-17.7C673.4,457.9,673.4,273.7,673.4,273.7z" style="fill: url('#SVGID_4_');"/>
	<linearGradient id="SVGID_5_" gradientUnits="userSpaceOnUse" x1="660.7129" y1="481.2036" x2="632.3591" y2="432.0933">
		<stop offset="0" style="stop-color:#E6E6E6"/>
		<stop offset="0.3039" style="stop-color:#E3E3E3"/>
		<stop offset="0.4555" style="stop-color:#DCDCDC"/>
		<stop offset="0.5735" style="stop-color:#CECECE"/>
		<stop offset="0.6741" style="stop-color:#BCBCBC"/>
		<stop offset="0.7636" style="stop-color:#A3A3A3"/>
		<stop offset="0.8453" style="stop-color:#858585"/>
		<stop offset="0.921" style="stop-color:#626262"/>
		<stop offset="0.99" style="stop-color:#393939"/>
		<stop offset="1" style="stop-color:#333333"/>
	</linearGradient>
	<path class="st3" d="M634.7,458.5v-22.1c0,0-1.1-8.2,6.5-8.2c0,0,4.5-0.4,4.5,9c0,9.4,0,21.3,0,21.3l13.4,17.6l6.6,2&#10;&#9;&#9;c0,0-6,5.1-11.5,3.4C648.6,479.9,634.7,458.5,634.7,458.5z" style="fill: url('#SVGID_5_');"/>
	<linearGradient id="SVGID_6_" gradientUnits="userSpaceOnUse" x1="624.032" y1="483.8721" x2="598.2668" y2="439.2454">
		<stop offset="0" style="stop-color:#E6E6E6"/>
		<stop offset="0.3039" style="stop-color:#E3E3E3"/>
		<stop offset="0.4555" style="stop-color:#DCDCDC"/>
		<stop offset="0.5735" style="stop-color:#CECECE"/>
		<stop offset="0.6741" style="stop-color:#BCBCBC"/>
		<stop offset="0.7636" style="stop-color:#A3A3A3"/>
		<stop offset="0.8453" style="stop-color:#858585"/>
		<stop offset="0.921" style="stop-color:#626262"/>
		<stop offset="0.99" style="stop-color:#393939"/>
		<stop offset="1" style="stop-color:#333333"/>
	</linearGradient>
	<path class="st4" d="M601.6,461.4v-19.3c0,0-0.4-6.2,3.2-6.2c3.6,0,4.2,3.4,4.2,7.1c0,3.7,1.7,22.8,1.7,22.8l12.5,18.5l-10.8-2.5&#10;&#9;&#9;C612.4,481.9,601.6,464.6,601.6,461.4z" style="fill: url('#SVGID_6_');"/>
	<linearGradient id="SVGID_7_" gradientUnits="userSpaceOnUse" x1="615.1418" y1="293.1613" x2="595.7658" y2="326.7216">
		<stop offset="0" style="stop-color:#E6E6E6"/>
		<stop offset="0.3039" style="stop-color:#E3E3E3"/>
		<stop offset="0.4555" style="stop-color:#DCDCDC"/>
		<stop offset="0.5735" style="stop-color:#CECECE"/>
		<stop offset="0.6741" style="stop-color:#BCBCBC"/>
		<stop offset="0.7636" style="stop-color:#A3A3A3"/>
		<stop offset="0.8453" style="stop-color:#858585"/>
		<stop offset="0.921" style="stop-color:#626262"/>
		<stop offset="0.99" style="stop-color:#393939"/>
		<stop offset="1" style="stop-color:#333333"/>
	</linearGradient>
	<path class="st5" d="M601.7,297.3v26.9c0,0-0.1,13.2,4.7,3.1c4.1-8.5,4.1-13.2,4.1-13.2l0.6-23.2&#10;&#9;&#9;C611.1,290.8,604,293.6,601.7,297.3z" style="fill: url('#SVGID_7_');"/>
	<linearGradient id="SVGID_8_" gradientUnits="userSpaceOnUse" x1="655.7829" y1="272.2832" x2="631.463" y2="314.4064">
		<stop offset="0" style="stop-color:#E6E6E6"/>
		<stop offset="0.3039" style="stop-color:#E3E3E3"/>
		<stop offset="0.4555" style="stop-color:#DCDCDC"/>
		<stop offset="0.5735" style="stop-color:#CECECE"/>
		<stop offset="0.6741" style="stop-color:#BCBCBC"/>
		<stop offset="0.7636" style="stop-color:#A3A3A3"/>
		<stop offset="0.8453" style="stop-color:#858585"/>
		<stop offset="0.921" style="stop-color:#626262"/>
		<stop offset="0.99" style="stop-color:#393939"/>
		<stop offset="1" style="stop-color:#333333"/>
	</linearGradient>
	<path class="st6" d="M650,273.8c0,0-15.3,6.8-15.3,14.9c0,8.1,0,25.8,0,25.8s0.8,3.8,5.2,3.8c4.4,0,5.4-9.1,5.4-9.1l1.2-24.8&#10;&#9;&#9;c0,0,6.3-8.3,12.3-10.4L650,273.8z" style="fill: url('#SVGID_8_');"/>
</g>
<linearGradient id="SVGID_9_" gradientUnits="userSpaceOnUse" x1="498.9091" y1="420.4766" x2="502.113" y2="328.7273">
	<stop offset="0" style="stop-color:#CCCCCC"/>
	<stop offset="0.4353" style="stop-color:#CACACA"/>
	<stop offset="0.599" style="stop-color:#C3C3C3"/>
	<stop offset="0.7168" style="stop-color:#B7B7B7"/>
	<stop offset="0.8128" style="stop-color:#A6A6A6"/>
	<stop offset="0.8953" style="stop-color:#909090"/>
	<stop offset="0.9673" style="stop-color:#757575"/>
	<stop offset="1" style="stop-color:#666666"/>
</linearGradient>
<path class="st7" d="M365.4,330v41.3c0,0,5.3,11.4,22.2,11.4c0,0,158.5,1.6,219.4,41.5l23.8-6.1c0,0,4.2-0.8,5-8.5&#10;&#9;c0.8-7.7,0.7-71,0.7-71s-83.8-4.7-124.8-6.5c-41-1.9-90.8-5.2-90.8-5.2l-50.1-2.8C370.9,324.1,365.4,324.2,365.4,330z" style="fill: url('#SVGID_9_');"/>
<linearGradient id="SVGID_10_" gradientUnits="userSpaceOnUse" x1="365.4131" y1="352.6236" x2="422.0439" y2="352.6236">
	<stop offset="0" style="stop-color:#999999"/>
	<stop offset="0.5092" style="stop-color:#E6E6E6"/>
	<stop offset="1" style="stop-color:#999999"/>
</linearGradient>
<path class="st8" d="M421,327l1.1,42.2c0,0-8,9.8-12.2,11.9c0,0-19.9-4.2-32.3,0c0,0-12.2-2.4-12.2-13.2c0-10.9,0.2-39.5,0.2-39.5&#10;&#9;s-0.6-4,5.3-4.2C376.7,323.9,421,327,421,327z" style="fill: url('#SVGID_10_');"/>
<linearGradient id="SVGID_11_" gradientUnits="userSpaceOnUse" x1="365.5195" y1="376.2287" x2="422.0439" y2="376.2287">
	<stop offset="0" style="stop-color:#666666"/>
	<stop offset="0.5092" style="stop-color:#CCCCCC"/>
	<stop offset="1" style="stop-color:#666666"/>
</linearGradient>
<path class="st9" d="M365.5,369.5c0,0,22.9-0.9,56.5-0.3l-11.9,14.2c0,0-22.5-6.8-32.5-2.3C377.6,381.1,367.5,379.1,365.5,369.5z" style="fill: url('#SVGID_11_');"/>
<linearGradient id="SVGID_12_" gradientUnits="userSpaceOnUse" x1="409.0479" y1="396.7116" x2="636.5562" y2="396.7116">
	<stop offset="0" style="stop-color:#CCCCCC"/>
	<stop offset="0.4353" style="stop-color:#CACACA"/>
	<stop offset="0.599" style="stop-color:#C3C3C3"/>
	<stop offset="0.7168" style="stop-color:#B7B7B7"/>
	<stop offset="0.8128" style="stop-color:#A6A6A6"/>
	<stop offset="0.8953" style="stop-color:#909090"/>
	<stop offset="0.9673" style="stop-color:#757575"/>
	<stop offset="1" style="stop-color:#666666"/>
</linearGradient>
<path class="st10" d="M636.3,402.6c0,0-129-34.7-214.2-33.4l-13,14.2c0,0,144.8,5.4,198,40.9c0,0,24.4-3.3,26.5-7.9&#10;&#9;C635.6,411.7,637.2,408.1,636.3,402.6z" style="fill: url('#SVGID_12_');"/>
<path class="st11" d="M414.4,377.6c0,0,160.1,9.1,217.8,39.5c0,0,5.9-2.6,4.1-14.5c0,0-137-35-214.2-33.4L414.4,377.6z" style="fill: rgb(153, 153, 153);"/>
<linearGradient id="SVGID_13_" gradientUnits="userSpaceOnUse" x1="384.8477" y1="385.2632" x2="400.5264" y2="385.2632">
	<stop offset="0" style="stop-color:#666666"/>
	<stop offset="0.5092" style="stop-color:#CCCCCC"/>
	<stop offset="1" style="stop-color:#666666"/>
</linearGradient>
<path class="st12" d="M384.8,379.9v9.5c0,0,2,2.4,7.5,2.4c5.6,0,8.1-1.8,8.1-1.8v-9.9C400.5,380.1,389.1,377.3,384.8,379.9z" style="fill: url('#SVGID_13_');"/>
<g>
	
		<linearGradient id="SVGID_14_" gradientUnits="userSpaceOnUse" x1="252.4689" y1="177.7023" x2="258.252" y2="288.0504" gradientTransform="matrix(0.9281 -0.3724 0.3724 0.9281 -67.6905 146.7024)">
		<stop offset="0" style="stop-color:#808080"/>
		<stop offset="1" style="stop-color:#333333"/>
	</linearGradient>
	<path class="st13" d="M296.4,191.9c0,0,15.8,39.4,22.2,61.7c6.4,22.3,6.5,22.6,0.5,30.1c-6,7.5-26.6,28.6-38,33.2&#10;&#9;&#9;c-11.4,4.6-69.8,17.2-69.8,17.2s32.4-22.1,36.3-32.4c3.9-10.3,5.8-9.2,1.4-19.4c-4.4-10.2-24.9-52-24.9-52l11.1-13.8l36.9-14.8&#10;&#9;&#9;L296.4,191.9z" style="fill: url('#SVGID_14_');"/>
	
		<linearGradient id="SVGID_15_" gradientUnits="userSpaceOnUse" x1="262.1678" y1="242.3025" x2="489.503" y2="242.3025" gradientTransform="matrix(0.9281 -0.3724 0.3724 0.9281 -67.6905 146.7024)">
		<stop offset="0" style="stop-color:#CCCCCC"/>
		<stop offset="1" style="stop-color:#B3B3B3"/>
	</linearGradient>
	<path class="st14" d="M461.6,151.2c0,0,16.8,44,14.5,82.3c0,0,1.2,10.1-9,18.1c-10.2,8.1-25.4,23.3-74.3,35.8&#10;&#9;&#9;c-48.9,12.5-109.9,28.8-109.9,28.8s39.4-29.2,40.6-40.7c1.2-11.6-26.1-81.3-26.1-81.3s30.3-12.2,82.5-28&#10;&#9;&#9;C431.9,150.5,461.6,151.2,461.6,151.2z" style="fill: url('#SVGID_15_');"/>
	
		<linearGradient id="SVGID_16_" gradientUnits="userSpaceOnUse" x1="467.2389" y1="245.965" x2="346.296" y2="304.9528" gradientTransform="matrix(0.9281 -0.3724 0.3724 0.9281 -67.6905 146.7024)">
		<stop offset="0" style="stop-color:#E6E6E6"/>
		<stop offset="2.399621e-02" style="stop-color:#DDDDDD"/>
		<stop offset="0.1287" style="stop-color:#BBBBBB"/>
		<stop offset="0.2361" style="stop-color:#A1A1A1"/>
		<stop offset="0.3458" style="stop-color:#8E8E8E"/>
		<stop offset="0.4594" style="stop-color:#838383"/>
		<stop offset="0.5828" style="stop-color:#808080"/>
		<stop offset="1" style="stop-color:#808080"/>
	</linearGradient>
	<path class="st15" d="M340,276.1c0,0,4.9-32.5,76.6-59.8c0,0,52.8-12.1,56.2-0.6c3.4,11.4,4.5,27.2-3.4,33.9c0,0-7.4,2.4-7.1-7.4&#10;&#9;&#9;c0.3-9.8,3.5-20.5-5.8-23C447.3,216.5,393.2,211.7,340,276.1z" style="fill: url('#SVGID_16_');"/>
	
		<linearGradient id="SVGID_17_" gradientUnits="userSpaceOnUse" x1="157.7697" y1="220.1854" x2="168.0021" y2="103.2286" gradientTransform="matrix(0.9281 -0.3724 0.3724 0.9281 -67.6905 146.7024)">
		<stop offset="0" style="stop-color:#808080"/>
		<stop offset="1" style="stop-color:#1A1A1A"/>
	</linearGradient>
	<path class="st16" d="M145.5,175.1c0,0-8.7-0.4-23.9,9.6c-15.2,10-24.4,36.3-23.9,41.7c0.4,5.4,2.8,8,9.5,17.2&#10;&#9;&#9;c6.7,9.2,44.9,46.9,54.3,47.9c0,0,4.9,0.6,12.2-4.9l0.2-4.8l-23.7-45.2c0,0-0.8-9.5,1.2-14.2c2-4.6,24.8-23.2,24.8-23.2&#10;&#9;&#9;L145.5,175.1z" style="fill: url('#SVGID_17_');"/>
	<g>
		
			<linearGradient id="SVGID_18_" gradientUnits="userSpaceOnUse" x1="163.0669" y1="202.7439" x2="243.4385" y2="202.7439" gradientTransform="matrix(0.9281 -0.3724 0.3724 0.9281 -67.6905 146.7024)">
			<stop offset="0" style="stop-color:#808080"/>
			<stop offset="1" style="stop-color:#333333"/>
		</linearGradient>
		<path class="st17" d="M224.1,230.4c0,0,22.3,42.8,26.7,56.9c0,0,3,6.5-3.2,14.5c-6.2,8-25.2,26.8-34.8,31.5c0,0-2.6,4.1-11.4-6.1&#10;&#9;&#9;&#9;c-8.8-10.2-50.7-74.2-61.1-100c0,0,10.4-27.5,25-36.5l15.5,1l14,11.5l13.9,15.4L224.1,230.4z" style="fill: url('#SVGID_18_');"/>
		
			<linearGradient id="SVGID_19_" gradientUnits="userSpaceOnUse" x1="216.8439" y1="275.5262" x2="205.6635" y2="147.7332" gradientTransform="matrix(0.9281 -0.3724 0.3724 0.9281 -67.6905 146.7024)">
			<stop offset="0" style="stop-color:#333333"/>
			<stop offset="0.5153" style="stop-color:#808080"/>
			<stop offset="1" style="stop-color:#333333"/>
		</linearGradient>
		<path class="st18" d="M182.7,204.9c0,0-15.6,10.4-15,20.7c0.6,10.2,21.2,61.6,27.3,78.2c6,16.6,12.3,31.2,16.3,30.3&#10;&#9;&#9;&#9;c4-0.9,42.4-28.1,40-41.5c-2.4-13.4-26.7-61.2-26.7-61.2l-18.5-15.7l-11.6-10.2L182.7,204.9z" style="fill: url('#SVGID_19_');"/>
		<path class="st19" d="M187.1,210.1c0,0-11.5,36.9,7.5,72.5c19,35.6,36.8,22,40.3,6.5c3.4-15.5,3.2-29.9,3.2-29.9l-13.4-27.8&#10;&#9;&#9;&#9;L201.9,216L187.1,210.1z" style="fill: rgb(54, 54, 54);"/>
		<path class="st20" d="M191.9,219.3l5.2,4.1c0,0-13.9,28.5,8.2,57.7c0,0,19.4,21.3,30.8-9.8c0,0,0.9,29.7-13.4,33.2&#10;&#9;&#9;&#9;s-32.2-38.9-33.4-52.9C188.1,237.5,191.9,219.3,191.9,219.3z" style="fill: rgb(99, 99, 99);"/>
		
			<radialGradient id="SVGID_20_" cx="221.3277" cy="202.1075" r="21.1283" gradientTransform="matrix(0.9281 -0.3724 0.3724 0.9281 -67.6905 146.7024)" gradientUnits="userSpaceOnUse">
			<stop offset="0" style="stop-color:#808080"/>
			<stop offset="1" style="stop-color:#333333"/>
		</radialGradient>
		<path class="st21" d="M204.5,226.7c0,0-7.3,11-2.2,31.8c5.1,20.7,23.7,27.5,23.3,8.4c-0.4-19.2-6.3-33.9-6.3-33.9l-12.3-7.7&#10;&#9;&#9;&#9;L204.5,226.7z" style="fill: url('#SVGID_20_');"/>
		
			<path d="M 177.900006 230.100006 A 2.8 5.4 0 0 1 175.100006 235.500006 A 2.8 5.4 0 0 1 172.300006 230.100006 A 2.8 5.4 0 0 1 175.100006 224.700006 A 2.8 5.4 0 0 1 177.900006 230.100006 Z" transform="matrix(0.9814 -0.1918 0.1918 0.9814 -40.877 37.8411)" class="st22" style="fill: rgb(70, 70, 70);"/>
		
			<path d="M 212.400006 321.299988 A 2.8 5.4 0 0 1 209.600006 326.699988 A 2.8 5.4 0 0 1 206.800006 321.299988 A 2.8 5.4 0 0 1 209.600006 315.899988 A 2.8 5.4 0 0 1 212.400006 321.299988 Z" transform="matrix(0.9814 -0.1918 0.1918 0.9814 -57.7254 46.1589)" class="st22" style="fill: rgb(70, 70, 70);"/>
		
			<path d="M 249.600003 287 A 2.8 5.4 0 0 1 246.800003 292.4 A 2.8 5.4 0 0 1 244.000003 287 A 2.8 5.4 0 0 1 246.800003 281.6 A 2.8 5.4 0 0 1 249.600003 287 Z" transform="matrix(0.9815 -0.1917 0.1917 0.9815 -50.4518 52.6362)" class="st22" style="fill: rgb(70, 70, 70);"/>
	</g>
	
		<linearGradient id="SVGID_21_" gradientUnits="userSpaceOnUse" x1="193.9791" y1="158.7479" x2="181.3358" y2="136.849" gradientTransform="matrix(0.9281 -0.3724 0.3724 0.9281 -67.6905 146.7024)">
		<stop offset="0" style="stop-color:#808080"/>
		<stop offset="0.2417" style="stop-color:#646464"/>
		<stop offset="0.5368" style="stop-color:#494949"/>
		<stop offset="0.7992" style="stop-color:#393939"/>
		<stop offset="1" style="stop-color:#333333"/>
	</linearGradient>
	<path class="st23" d="M167.8,225.6l-26.6,1.6c0,0,12.2-29.3,24.4-35.7l20,12.3L167.8,225.6z" style="fill: url('#SVGID_21_');"/>
	<path class="st24" d="M141.2,227.1c0,0,15.9,30,24.3,43.8c8.4,13.8,30.8,48.3,34,52.1s3.7,6,3.7,6s-14.5-20.5-20.5-29.7&#10;&#9;&#9;c-6-9.2-31.7-51.6-33.7-55.5c-3.8-7.3-8.6-16.7-8.6-16.7L141.2,227.1z" style="fill: rgb(90, 90, 90);"/>
	<path class="st24" d="M225.6,233.1c0,0,64.2-30,73.1-33.4l-1.3-5.5C297.3,194.3,230.1,227.9,225.6,233.1z" style="fill: rgb(90, 90, 90);"/>
	
		<linearGradient id="SVGID_22_" gradientUnits="userSpaceOnUse" x1="323.8644" y1="213.6493" x2="347.0656" y2="132.7374" gradientTransform="matrix(0.9281 -0.3724 0.3724 0.9281 -67.6905 146.7024)">
		<stop offset="0" style="stop-color:#808080"/>
		<stop offset="1" style="stop-color:#333333"/>
	</linearGradient>
	<path class="st25" d="M145.5,175.1l307.1-49.7c0,0,11.6-2.4,12.4,8.1c0.8,10.5-1.3,21-13.9,25c-12.7,3.9-108.7,4.8-222.3,72.7&#10;&#9;&#9;c0,0-5.3,6.7-17.6-2.6C198.9,219.2,145.5,175.1,145.5,175.1z" style="fill: url('#SVGID_22_');"/>
	
		<linearGradient id="SVGID_23_" gradientUnits="userSpaceOnUse" x1="243.4529" y1="296.5556" x2="260.6721" y2="246.5476" gradientTransform="matrix(0.9281 -0.3724 0.3724 0.9281 -67.6905 146.7024)">
		<stop offset="0" style="stop-color:#808080"/>
		<stop offset="1" style="stop-color:#262626"/>
	</linearGradient>
	<path class="st26" d="M251.3,292.6l72.1-17c0,0-1.2,4.6-6.6,10.6c-5.3,5.9-29.5,27.7-35.8,30.8c-6.2,3.1-69.8,17.2-69.8,17.2&#10;&#9;&#9;S245.8,314.5,251.3,292.6z" style="fill: url('#SVGID_23_');"/>
	
		<linearGradient id="SVGID_24_" gradientUnits="userSpaceOnUse" x1="313.6439" y1="239.8972" x2="406.8762" y2="343.4422" gradientTransform="matrix(0.9281 -0.3724 0.3724 0.9281 -67.6905 146.7024)">
		<stop offset="0" style="stop-color:#CCCCCC"/>
		<stop offset="1" style="stop-color:#808080"/>
	</linearGradient>
	<path class="st27" d="M323.4,275.6c0,0,125.2-24.3,146-26.1c0,0-28,23-52.3,30.4c-24.4,7.5-136,37-136,37S318.3,291.1,323.4,275.6z&#10;&#9;&#9;" style="fill: url('#SVGID_24_');"/>
	
		<linearGradient id="SVGID_25_" gradientUnits="userSpaceOnUse" x1="335.6598" y1="304.5642" x2="404.43" y2="320.441" gradientTransform="matrix(0.9281 -0.3724 0.3724 0.9281 -67.6905 146.7024)">
		<stop offset="0" style="stop-color:#999999"/>
		<stop offset="0.5092" style="stop-color:#E6E6E6"/>
		<stop offset="1" style="stop-color:#999999"/>
	</linearGradient>
	<path class="st28" d="M353,277.3c0,0,5.3,2.6,6.8,6.2c1.5,3.7-2.7,21,0.8,30.5c3.5,9.4,9,10.9,9,10.9l49.4,1.9c0,0,7.1-55.1,3-63.1&#10;&#9;&#9;C422,263.7,377.5,265.7,353,277.3z" style="fill: url('#SVGID_25_');"/>
	
		<linearGradient id="SVGID_26_" gradientUnits="userSpaceOnUse" x1="348.5466" y1="313.6225" x2="347.6646" y2="301.01" gradientTransform="matrix(0.9281 -0.3724 0.3724 0.9281 -67.6905 146.7024)">
		<stop offset="0" style="stop-color:#808080"/>
		<stop offset="1" style="stop-color:#333333"/>
	</linearGradient>
	<path class="st29" d="M381.6,303.6c0,0-11.4-8-16.9-5.8c-5.5,2.1-4,9.7-1.7,13.3L381.6,303.6z" style="fill: url('#SVGID_26_');"/>
	
		<linearGradient id="SVGID_27_" gradientUnits="userSpaceOnUse" x1="368.13" y1="236.3171" x2="442.2446" y2="310.4316" gradientTransform="matrix(0.9281 -0.3724 0.3724 0.9281 -67.6905 146.7024)">
		<stop offset="0" style="stop-color:#B3B3B3"/>
		<stop offset="1" style="stop-color:#808080"/>
	</linearGradient>
	<path class="st30" d="M343.7,271.8c0,0,30.7-40.3,80-51.6c0,0,30.7-6,36.4,0.6c5.6,6.6,2.3,15.9,2.4,20.2c0.1,4.3,0.6,8.3,4.6,8.8&#10;&#9;&#9;C467.1,249.8,407.2,258.7,343.7,271.8z" style="fill: url('#SVGID_27_');"/>
</g>
</svg>